#tb 0: 1/1000
0,          0,          0,        0,      384, c7b30cde5664387b0f7a80d9b01e4fe2
0,         33,         33,        0,      384, 2228a2a4e54ab5145525e5803c314dcd
0,         66,         66,        0,      384, 8c048469eba24f3163c36b7461b3b42a
0,        100,        100,        0,      384, f6b8e8e701dea09dcf1158e9a52921c6
0,        133,        133,        0,      384, b3a5fde0daf2eef8fc08521f88f79692
0,        166,        166,        0,      384, 653ae11cc1380ae7f39b2e007f896d81
0,        200,        200,        0,      384, 6e66fe002a7dff95e13cc9d3d13d9686
0,        233,        233,        0,      384, 13308c917a1e22c2f702afc32b8a23c2
0,        266,        266,        0,      384, 4fee1e63f9452dc3f81c1d634bd7f41d
0,        300,        300,        0,      384, 666b43ead5c7c99ae5b7637da5aa4d62
